<?xml version="1.0" encoding="UTF-8"?>
<svg id="Layer_1" xmlns="http://www.w3.org/2000/svg" version="1.1" xmlns:xlink="http://www.w3.org/1999/xlink" viewBox="0 0 34.32 34.4">
  <!-- Generator: Adobe Illustrator 30.0.0, SVG Export Plug-In . SVG Version: 2.1.1 Build 123)  -->
  <defs>
    <style>
      .st0 {
        fill: url(#radial-gradient);
      }

      .st1 {
        fill: url(#radial-gradient1);
      }

      .st2 {
        filter: url(#drop-shadow-1);
      }

      .st3 {
        fill: url(#radial-gradient2);
      }
    </style>
    <filter id="drop-shadow-1" x=".72" y="1.04" width="33" height="33" filterUnits="userSpaceOnUse">
      <feOffset dx="1" dy="1"/>
      <feGaussianBlur result="blur" stdDeviation="0"/>
      <feFlood flood-color="#000" flood-opacity=".75"/>
      <feComposite in2="blur" operator="in"/>
      <feComposite in="SourceGraphic"/>
    </filter>
    <radialGradient id="radial-gradient" cx="45.11" cy="14.25" fx="45.11" fy="14.25" r="12.53" gradientTransform="translate(-95.94 -23.96) scale(2.24 2.45)" gradientUnits="userSpaceOnUse">
      <stop offset=".06" stop-color="#0a5c34"/>
      <stop offset=".14" stop-color="#0a6138"/>
      <stop offset=".24" stop-color="#0b7145"/>
      <stop offset=".36" stop-color="#0d8b5b"/>
      <stop offset=".41" stop-color="#0e9a68"/>
      <stop offset=".54" stop-color="#0e9b69"/>
      <stop offset=".59" stop-color="#0ea26e"/>
      <stop offset=".62" stop-color="#0fae78"/>
      <stop offset=".64" stop-color="#10b981"/>
    </radialGradient>
    <radialGradient id="radial-gradient1" cx="-1926.29" cy="508.14" fx="-1926.29" fy="508.14" r="12.53" gradientTransform="translate(-4287.5 1265.6) rotate(-180) scale(2.24 2.45)" xlink:href="#radial-gradient"/>
    <radialGradient id="radial-gradient2" cx="46.82" cy="19.03" fx="54.23" fy="19.03" r="11.8" gradientTransform="translate(-95.94 -23.96) scale(2.24 2.45)" gradientUnits="userSpaceOnUse">
      <stop offset=".32" stop-color="#0a5c34"/>
      <stop offset=".39" stop-color="#0b7145"/>
      <stop offset=".49" stop-color="#0d8e5e"/>
      <stop offset=".79" stop-color="#0fac76"/>
      <stop offset=".96" stop-color="#10b981"/>
    </radialGradient>
  </defs>
  <g class="st2">
    <path class="st0" d="M4.9,14.96c-.23-.07-1.65-.53-2.34-2.1-.11-.26-.54-1.31-.25-2.56.1-.43.35-1.15,1.67-2.42,1.45-1.39,2.8-2.12,2.93-2.19,3.78-2,10.17-4.5,10.58-4.66l9.92,4.66c0-.7-.02-1.4-.02-2.1,1.78,1.89,3.56,3.78,5.34,5.66-1.8.64-3.66,1.28-5.56,1.89-1.8.59-3.57,1.14-5.32,1.66.81-1.06,1.61-2.13,2.42-3.19-2.63-.76-4.89-1.15-6.59-1.36-2.09-.27-3.68-.46-5.79-.26-2.31.22-4.19.82-5.48,1.33-.35.16-1.19.62-1.76,1.64-.2.36-.6,1.1-.52,2.12.08.99.58,1.65.76,1.88Z"/>
    <path class="st1" d="M28.54,19.11c.23.07,1.65.53,2.34,2.1.11.26.54,1.31.25,2.56-.1.43-.35,1.15-1.67,2.42-1.45,1.39-2.8,2.12-2.93,2.19-3.78,2-10.17,4.5-10.58,4.66l-9.92-4.66c0,.7.02,1.4.02,2.1-1.78-1.89-3.56-3.78-5.34-5.66,1.8-.64,3.66-1.28,5.56-1.89,1.8-.59,3.57-1.14,5.32-1.65-.81,1.06-1.61,2.13-2.42,3.19,2.63.76,4.89,1.15,6.59,1.36,2.09.27,3.68.46,5.79.26,2.31-.22,4.19-.82,5.48-1.33.35-.16,1.19-.62,1.76-1.64.2-.36.6-1.1.52-2.12-.08-.99-.58-1.65-.76-1.88Z"/>
    <path class="st3" d="M6.41,12.77c-.11.71.3,1.47.99,1.99,8.57,4.29,15.03,7.24,17,7.85.37.11,1.33.38,2.38,0,.71-.26,1.7-.89,1.75-1.73h0c-9.57-5.03-16.65-8.61-18.5-9.41-.39-.17-1.39-.59-2.35-.17-.12.05-1.12.52-1.27,1.47Z"/>
  </g>
</svg>